<?xml version="1.0" standalone="no"?>
<!DOCTYPE svg PUBLIC "-//W3C//DTD SVG 20010904//EN"
 "http://www.w3.org/TR/2001/REC-SVG-20010904/DTD/svg10.dtd">
<svg version="1.0" xmlns="http://www.w3.org/2000/svg"
 width="996.000000pt" height="986.000000pt" viewBox="0 0 996.000000 986.000000"
 preserveAspectRatio="xMidYMid meet">
<metadata>
Created by potrace 1.16, written by Peter Selinger 2001-2019
</metadata>
<g transform="translate(0.000000,986.000000) scale(0.100000,-0.100000)"
fill="#000000" stroke="none">
<path d="M0 4930 l0 -4930 4980 0 4980 0 0 4930 0 4930 -4980 0 -4980 0 0
-4930z m4325 1768 c-3 -18 -28 -231 -55 -473 -61 -544 -103 -920 -104 -921 -1
-2 -98 13 -122 19 -12 3 -37 8 -55 11 -19 3 -56 10 -84 16 -65 13 -93 19 -132
25 -22 4 -33 12 -34 23 -2 33 3 67 12 79 7 7 6 14 -1 18 -6 3 -8 11 -4 16 3 6
7 38 9 72 5 86 73 709 86 781 38 213 211 365 417 366 l73 0 -6 -32z m895 -565
c0 -10 -11 -121 -24 -248 -14 -126 -28 -261 -31 -300 -3 -38 -8 -81 -10 -95
-3 -14 -16 -124 -29 -245 -14 -121 -32 -242 -41 -268 -49 -144 -194 -262 -355
-288 -74 -12 -98 -6 -106 26 -3 13 1 91 10 172 72 662 99 894 108 928 37 144
140 258 278 308 61 22 76 24 143 26 48 1 57 -2 57 -16z m751 -464 c46 -16 97
-55 120 -93 33 -54 39 -95 29 -191 -6 -50 -12 -108 -14 -130 -3 -22 -8 -69
-11 -105 -15 -144 -55 -248 -128 -327 -84 -91 -169 -132 -294 -140 -79 -6 -83
-5 -83 15 0 11 13 139 30 284 66 588 62 563 114 624 54 65 153 91 237 63z
m-3826 -1593 c74 -19 127 -49 168 -95 39 -44 50 -72 45 -117 l-3 -29 -91 -3
c-90 -3 -92 -2 -115 25 -42 50 -69 63 -129 63 -71 0 -115 -26 -140 -83 -38
-84 -16 -213 44 -252 61 -41 155 -37 204 8 33 31 28 37 -31 37 -29 0 -58 5
-65 12 -16 16 -16 120 0 136 8 8 60 12 170 12 186 0 184 1 175 -110 -12 -143
-76 -222 -218 -271 -54 -18 -79 -20 -164 -16 -132 6 -201 32 -270 101 -158
157 -105 479 90 557 101 40 237 50 330 25z m749 -22 c11 -28 6 -130 -6 -142
-7 -7 -34 -12 -60 -12 l-48 0 0 -160 0 -160 43 0 c68 0 79 -13 75 -95 l-3 -70
-225 0 -225 0 -3 68 c-4 85 5 97 69 97 l49 0 0 160 0 160 -48 0 c-26 0 -53 5
-60 12 -12 12 -17 114 -6 142 5 14 35 16 224 16 189 0 219 -2 224 -16z m714
-57 c2 -42 -2 -74 -9 -83 -8 -10 -38 -14 -115 -14 l-104 0 -2 -242 -3 -243
-98 -3 c-97 -3 -97 -3 -107 23 -6 15 -10 125 -10 246 l0 219 -94 0 c-52 0
-101 3 -110 6 -13 5 -16 22 -16 78 0 40 3 76 7 79 4 4 153 6 332 5 l326 -3 3
-68z m627 45 c93 -43 135 -103 135 -192 0 -57 -29 -105 -81 -135 l-36 -20 31
-32 c40 -40 139 -220 132 -239 -4 -11 -29 -14 -109 -14 -120 0 -113 -5 -177
113 -23 42 -51 84 -63 92 -14 10 -46 15 -94 15 l-72 0 -3 -107 -3 -108 -95 -3
c-80 -2 -97 0 -107 15 -17 22 -19 594 -2 624 10 20 19 20 252 17 228 -3 245
-4 292 -26z m893 16 c7 -7 12 -39 12 -73 0 -34 -5 -66 -12 -73 -9 -9 -70 -12
-215 -12 l-203 0 0 -35 0 -35 155 0 c176 0 175 0 175 -85 0 -85 1 -85 -175
-85 l-155 0 0 -40 0 -40 196 0 c115 0 203 -4 215 -10 15 -9 19 -22 19 -70 0
-98 30 -90 -325 -90 -276 0 -314 2 -319 16 -3 9 -6 152 -6 318 0 222 3 305 12
314 17 17 609 17 626 0z m570 0 c21 -26 272 -603 272 -626 0 -22 -1 -23 -107
-20 l-108 3 -25 52 -25 53 -142 0 -142 0 -25 -55 -25 -55 -101 0 c-78 0 -102
3 -106 14 -6 16 248 600 274 629 13 14 33 17 132 17 82 0 121 -4 128 -12z
m807 -2 c98 -26 177 -84 215 -157 44 -84 44 -234 1 -318 -41 -78 -122 -137
-223 -161 -24 -5 -134 -10 -245 -10 -190 0 -203 1 -213 19 -6 12 -10 129 -10
311 0 182 4 299 10 311 10 18 23 19 213 19 136 0 218 -5 252 -14z m1083 2 c21
-26 272 -603 272 -626 0 -22 -1 -23 -107 -20 l-108 3 -25 52 -25 53 -142 0
-142 0 -25 -55 -25 -55 -101 0 c-78 0 -102 3 -106 14 -6 16 248 600 274 629
13 14 33 17 132 17 82 0 121 -4 128 -12z m750 0 c15 -15 16 -112 2 -139 -8
-15 -22 -19 -60 -19 l-50 0 0 -160 0 -160 44 0 c27 0 51 -6 60 -16 21 -20 22
-126 2 -143 -9 -8 -78 -11 -227 -9 l-214 3 -3 68 c-4 85 5 97 69 97 l49 0 0
160 0 160 -48 0 c-26 0 -53 5 -60 12 -13 13 -17 140 -5 151 12 13 428 8 441
-5z m-1340 -494 c18 -13 22 -25 22 -73 0 -31 -5 -62 -12 -69 -7 -7 -41 -12
-84 -12 -64 0 -75 3 -88 22 -27 38 -17 117 18 140 21 14 121 9 144 -8z"/>
<path d="M3900 3849 l0 -61 106 4 c97 3 108 6 125 27 25 30 24 37 -6 66 -22
23 -31 25 -125 25 l-100 0 0 -61z"/>
<path d="M6250 3740 l0 -170 83 0 c104 0 143 18 175 80 43 87 16 203 -58 242
-25 13 -57 18 -117 18 l-83 0 0 -170z"/>
</g>
</svg>
